# xmcd CD database file
#
# Track frame offsets:
#	150
#	13707
#	28727
#	45737
#	61930
#	84047
#	94982
#	119235
#	133735
#	149420
#	162500
#	180227
#	195435
#
# Disc length: 2821 seconds
#
# Revision: 1
# Processed by: cddbd v1.5.1PL2 Copyright (c) Steve Scherf et al.
# Submitted via: CDex 1.51
#
DISCID=b00b030d
DTITLE=The Dew Daddies - Makin' Good Time
DYEAR=1996
DGENRE=Country
TTITLE0=Eliza Dean
TTITLE1=Makin' Good Time
TTITLE2=Train of Thought
TTITLE3=The Nearest Honky Tonk
TTITLE4=Livin' It Over
TTITLE5=A Love-Hate Relationship
TTITLE6=I'm Not Crazy
TTITLE7=Honky Tonk Time
TTITLE8=Makin' All My Dreams Come Blue
TTITLE9=One Thing I Can Count On
TTITLE10=The Vincennes Waltz
TTITLE11=Homesick L.A. Blues
TTITLE12=Mostly I've Just Been Missin' You
EXTD=YEAR: 1996
EXTT0=
EXTT1=
EXTT2=
EXTT3=
EXTT4=
EXTT5=
EXTT6=
EXTT7=
EXTT8=
EXTT9=
EXTT10=
EXTT11=
EXTT12=
PLAYORDER=
